<svg width="49" height="37" viewBox="0 0 49 37" fill="none" xmlns="http://www.w3.org/2000/svg">
<path d="M1.30984 30.7188V33.4102C1.30984 33.4622 1.30854 33.5299 1.30594 33.6133C1.30333 33.694 1.29943 33.7812 1.29422 33.875C1.28901 33.9661 1.2838 34.0547 1.27859 34.1406C1.27599 34.224 1.27208 34.293 1.26687 34.3477L3.60281 30.7188H4.39969V35H3.79422V32.375C3.79422 32.2917 3.79552 32.1849 3.79812 32.0547C3.80073 31.9245 3.80463 31.7969 3.80984 31.6719C3.81505 31.5443 3.81896 31.4453 3.82156 31.375L1.49344 35H0.692656V30.7188H1.30984ZM6.27094 30.7188V32.5156H8.65766V30.7188H9.30609V35H8.65766V33.0664H6.27094V35H5.61859V30.7188H6.27094ZM13.0094 28.9219V30.6562C13.4339 30.6927 13.8036 30.8034 14.1187 30.9883C14.4339 31.1706 14.6786 31.4193 14.8531 31.7344C15.0276 32.0495 15.1148 32.4245 15.1148 32.8594C15.1148 33.2865 15.0302 33.6589 14.8609 33.9766C14.6943 34.2943 14.4534 34.5456 14.1383 34.7305C13.8258 34.9154 13.4495 35.026 13.0094 35.0625V36.9219H12.3766V35.0625C11.9521 35.0312 11.5823 34.9245 11.2672 34.7422C10.9547 34.5573 10.7112 34.306 10.5367 33.9883C10.3622 33.6706 10.275 33.2943 10.275 32.8594C10.275 32.4245 10.3583 32.0495 10.525 31.7344C10.6943 31.4167 10.9365 31.1667 11.2516 30.9844C11.5667 30.7995 11.9482 30.6901 12.3961 30.6562V28.9219H13.0094ZM12.3961 31.1953C12.0654 31.224 11.7932 31.3073 11.5797 31.4453C11.3661 31.5833 11.2073 31.7708 11.1031 32.0078C11.0016 32.2448 10.9508 32.5286 10.9508 32.8594C10.9508 33.1901 11.0029 33.4753 11.107 33.7148C11.2112 33.9518 11.3701 34.1393 11.5836 34.2773C11.7971 34.4154 12.068 34.5 12.3961 34.5312V31.1953ZM13.0094 31.2031V34.5312C13.3375 34.4974 13.607 34.4102 13.818 34.2695C14.0315 34.1289 14.1891 33.9401 14.2906 33.7031C14.3948 33.4661 14.4469 33.1849 14.4469 32.8594C14.4469 32.3646 14.3284 31.9779 14.0914 31.6992C13.8544 31.418 13.4937 31.2526 13.0094 31.2031ZM19.7791 32.8516C19.7791 33.2031 19.7335 33.5169 19.6423 33.793C19.5512 34.069 19.4197 34.3021 19.2478 34.4922C19.0759 34.6823 18.8676 34.8281 18.6228 34.9297C18.3806 35.0286 18.1059 35.0781 17.7986 35.0781C17.5121 35.0781 17.2491 35.0286 17.0095 34.9297C16.7726 34.8281 16.5668 34.6823 16.3923 34.4922C16.2205 34.3021 16.0864 34.069 15.99 33.793C15.8962 33.5169 15.8494 33.2031 15.8494 32.8516C15.8494 32.3828 15.9288 31.9844 16.0877 31.6562C16.2465 31.3255 16.4731 31.0742 16.7673 30.9023C17.0642 30.7279 17.4171 30.6406 17.8259 30.6406C18.2166 30.6406 18.5577 30.7279 18.8494 30.9023C19.1436 31.0768 19.3715 31.3294 19.533 31.6602C19.697 31.9883 19.7791 32.3854 19.7791 32.8516ZM16.5212 32.8516C16.5212 33.1953 16.5668 33.4935 16.658 33.7461C16.7491 33.9987 16.8897 34.194 17.0798 34.332C17.2699 34.4701 17.5147 34.5391 17.8142 34.5391C18.1111 34.5391 18.3546 34.4701 18.5447 34.332C18.7374 34.194 18.8793 33.9987 18.9705 33.7461C19.0616 33.4935 19.1072 33.1953 19.1072 32.8516C19.1072 32.5104 19.0616 32.2161 18.9705 31.9688C18.8793 31.7188 18.7387 31.526 18.5486 31.3906C18.3585 31.2552 18.1124 31.1875 17.8103 31.1875C17.365 31.1875 17.0382 31.3346 16.8298 31.6289C16.6241 31.9232 16.5212 32.3307 16.5212 32.8516ZM22.7519 30.6406C23.2857 30.6406 23.7115 30.8242 24.0292 31.1914C24.3469 31.5586 24.5058 32.1107 24.5058 32.8477C24.5058 33.3346 24.4329 33.7435 24.287 34.0742C24.1412 34.4049 23.9355 34.6549 23.6698 34.8242C23.4068 34.9935 23.0956 35.0781 22.7362 35.0781C22.5097 35.0781 22.3105 35.0482 22.1386 34.9883C21.9667 34.9284 21.8196 34.8477 21.6972 34.7461C21.5748 34.6445 21.4732 34.5339 21.3925 34.4141H21.3456C21.3534 34.5156 21.3626 34.638 21.373 34.7812C21.386 34.9245 21.3925 35.0495 21.3925 35.1562V36.9141H20.7402V30.7188H21.2753L21.3612 31.3516H21.3925C21.4758 31.2214 21.5774 31.1029 21.6972 30.9961C21.817 30.8867 21.9628 30.8008 22.1347 30.7383C22.3092 30.6732 22.5149 30.6406 22.7519 30.6406ZM22.6386 31.1875C22.3417 31.1875 22.1021 31.2448 21.9198 31.3594C21.7402 31.474 21.6086 31.6458 21.5253 31.875C21.442 32.1016 21.3977 32.3867 21.3925 32.7305V32.8555C21.3925 33.2174 21.4316 33.5234 21.5097 33.7734C21.5904 34.0234 21.7219 34.2135 21.9042 34.3438C22.0891 34.474 22.3365 34.5391 22.6464 34.5391C22.912 34.5391 23.1334 34.4674 23.3105 34.3242C23.4876 34.181 23.6191 33.9818 23.705 33.7266C23.7935 33.4688 23.8378 33.1732 23.8378 32.8398C23.8378 32.3346 23.7389 31.9336 23.5409 31.6367C23.3456 31.3372 23.0448 31.1875 22.6386 31.1875ZM29.9981 30.7188V35H29.4122V32.2109C29.4122 32.0964 29.4148 31.9805 29.42 31.8633C29.4278 31.7435 29.4369 31.6237 29.4473 31.5039H29.4239L28.002 35H27.4513L26.0645 31.5039H26.0411C26.0489 31.6237 26.0541 31.7435 26.0567 31.8633C26.0619 31.9805 26.0645 32.1042 26.0645 32.2344V35H25.4747V30.7188H26.3458L27.7286 34.2188L29.1309 30.7188H29.9981ZM32.7873 30.6484C33.2978 30.6484 33.6767 30.763 33.9241 30.9922C34.1715 31.2214 34.2952 31.5872 34.2952 32.0898V35H33.8225L33.6975 34.3672H33.6663C33.5465 34.5234 33.4215 34.6549 33.2913 34.7617C33.161 34.8659 33.01 34.9453 32.8381 35C32.6689 35.0521 32.4605 35.0781 32.2131 35.0781C31.9527 35.0781 31.7209 35.0326 31.5178 34.9414C31.3173 34.8503 31.1584 34.7122 31.0413 34.5273C30.9267 34.3424 30.8694 34.1081 30.8694 33.8242C30.8694 33.3971 31.0386 33.069 31.3772 32.8398C31.7157 32.6107 32.2314 32.4857 32.9241 32.4648L33.6623 32.4336V32.1719C33.6623 31.8021 33.5829 31.543 33.4241 31.3945C33.2652 31.2461 33.0413 31.1719 32.7522 31.1719C32.5282 31.1719 32.3147 31.2044 32.1116 31.2695C31.9084 31.3346 31.7157 31.4115 31.5334 31.5L31.3342 31.0078C31.5269 30.9089 31.7483 30.8242 31.9983 30.7539C32.2483 30.6836 32.5113 30.6484 32.7873 30.6484ZM33.6545 32.8906L33.0022 32.918C32.4683 32.9388 32.092 33.026 31.8733 33.1797C31.6545 33.3333 31.5452 33.5508 31.5452 33.832C31.5452 34.0768 31.6194 34.2578 31.7678 34.375C31.9163 34.4922 32.1129 34.5508 32.3577 34.5508C32.7379 34.5508 33.0491 34.4453 33.2913 34.2344C33.5334 34.0234 33.6545 33.707 33.6545 33.2852V32.8906ZM39.6391 36.4805H39.0062V35H35.4711V30.7188H36.1234V34.4492H38.393V30.7188H39.0414V34.457H39.6391V36.4805ZM40.9361 30.7188V33.4102C40.9361 33.4622 40.9348 33.5299 40.9322 33.6133C40.9296 33.694 40.9257 33.7812 40.9205 33.875C40.9153 33.9661 40.9101 34.0547 40.9048 34.1406C40.9022 34.224 40.8983 34.293 40.8931 34.3477L43.2291 30.7188H44.0259V35H43.4205V32.375C43.4205 32.2917 43.4218 32.1849 43.4244 32.0547C43.427 31.9245 43.4309 31.7969 43.4361 31.6719C43.4413 31.5443 43.4452 31.4453 43.4478 31.375L41.1197 35H40.3189V30.7188H40.9361ZM45.4519 35H44.6941L45.9284 33.1953C45.7487 33.1562 45.5821 33.0898 45.4284 32.9961C45.2748 32.8997 45.1498 32.7682 45.0534 32.6016C44.9597 32.4349 44.9128 32.2279 44.9128 31.9805C44.9128 31.569 45.0495 31.2565 45.323 31.043C45.599 30.8268 45.9623 30.7188 46.4128 30.7188H48.3073V35H47.6589V33.2812H46.573L45.4519 35ZM45.5417 31.9844C45.5417 32.2396 45.6329 32.4297 45.8152 32.5547C45.9974 32.6771 46.2579 32.7383 46.5964 32.7383H47.6589V31.2617H46.4831C46.1498 31.2617 45.9089 31.3294 45.7605 31.4648C45.6146 31.5977 45.5417 31.7708 45.5417 31.9844Z" fill="#272727" fill-opacity="0.8"/>
<path d="M24 23C17.9249 23 13 18.0751 13 12C13 5.92487 17.9249 0.999999 24 0.999999C30.0751 1 35 5.92487 35 12C35 18.0751 30.0751 23 24 23Z" stroke="#272727" stroke-width="2"/>
<rect x="25" y="9" width="10" height="2" rx="1" transform="rotate(90 25 9)" fill="#272727"/>
<circle cx="24" cy="6" r="1" transform="rotate(90 24 6)" fill="#272727"/>
</svg>
