<svg width="39" height="32" viewBox="0 0 39 32" fill="none" xmlns="http://www.w3.org/2000/svg">
<path d="M3.23375 25.7188H3.94859L2.10094 27.7852L4.09703 30H3.33531L1.39 27.8281V30H0.737656V25.7188H1.39V27.7969L3.23375 25.7188ZM6.31203 25.6484C6.82245 25.6484 7.20135 25.763 7.44875 25.9922C7.69615 26.2214 7.81984 26.5872 7.81984 27.0898V30H7.34719L7.22219 29.3672H7.19094C7.07115 29.5234 6.94615 29.6549 6.81594 29.7617C6.68573 29.8659 6.53469 29.9453 6.36281 30C6.19354 30.0521 5.98521 30.0781 5.73781 30.0781C5.4774 30.0781 5.24562 30.0326 5.0425 29.9414C4.84198 29.8503 4.68312 29.7122 4.56594 29.5273C4.45135 29.3424 4.39406 29.1081 4.39406 28.8242C4.39406 28.3971 4.56333 28.069 4.90187 27.8398C5.24042 27.6107 5.75604 27.4857 6.44875 27.4648L7.18703 27.4336V27.1719C7.18703 26.8021 7.1076 26.543 6.94875 26.3945C6.7899 26.2461 6.56594 26.1719 6.27687 26.1719C6.05292 26.1719 5.83937 26.2044 5.63625 26.2695C5.43312 26.3346 5.24042 26.4115 5.05812 26.5L4.85891 26.0078C5.05161 25.9089 5.27297 25.8242 5.52297 25.7539C5.77297 25.6836 6.03599 25.6484 6.31203 25.6484ZM7.17922 27.8906L6.52687 27.918C5.99302 27.9388 5.61672 28.026 5.39797 28.1797C5.17922 28.3333 5.06984 28.5508 5.06984 28.832C5.06984 29.0768 5.14406 29.2578 5.2925 29.375C5.44094 29.4922 5.63755 29.5508 5.88234 29.5508C6.26255 29.5508 6.57375 29.4453 6.81594 29.2344C7.05812 29.0234 7.17922 28.707 7.17922 28.2852V27.8906ZM11.9137 26.2695H10.5036V30H9.86297V26.2695H8.47234V25.7188H11.9137V26.2695ZM14.2498 25.6406C14.6144 25.6406 14.9269 25.7214 15.1873 25.8828C15.4478 26.0443 15.647 26.2708 15.785 26.5625C15.923 26.8516 15.992 27.1901 15.992 27.5781V27.9805H13.035C13.0428 28.4831 13.1678 28.8659 13.41 29.1289C13.6522 29.3919 13.9933 29.5234 14.4334 29.5234C14.7043 29.5234 14.9439 29.4987 15.1522 29.4492C15.3605 29.3997 15.5767 29.3268 15.8006 29.2305V29.8008C15.5845 29.8971 15.3696 29.9674 15.1561 30.0117C14.9452 30.056 14.6952 30.0781 14.4061 30.0781C13.9946 30.0781 13.6353 29.9948 13.328 29.8281C13.0233 29.6589 12.7863 29.4115 12.617 29.0859C12.4478 28.7604 12.3631 28.362 12.3631 27.8906C12.3631 27.4297 12.4399 27.0312 12.5936 26.6953C12.7498 26.3568 12.9686 26.0964 13.2498 25.9141C13.5337 25.7318 13.867 25.6406 14.2498 25.6406ZM14.242 26.1719C13.8957 26.1719 13.6196 26.2852 13.4139 26.5117C13.2082 26.7383 13.0858 27.0547 13.0467 27.4609H15.3123C15.3097 27.2057 15.2694 26.9818 15.1912 26.7891C15.1157 26.5938 14.9998 26.4427 14.8436 26.3359C14.6873 26.2266 14.4868 26.1719 14.242 26.1719ZM19.5312 25.7188V26.2695H17.5859V30H16.9336V25.7188H19.5312ZM23.9181 27.8516C23.9181 28.2031 23.8726 28.5169 23.7814 28.793C23.6903 29.069 23.5588 29.3021 23.3869 29.4922C23.215 29.6823 23.0067 29.8281 22.7619 29.9297C22.5197 30.0286 22.2449 30.0781 21.9377 30.0781C21.6512 30.0781 21.3882 30.0286 21.1486 29.9297C20.9116 29.8281 20.7059 29.6823 20.5314 29.4922C20.3595 29.3021 20.2254 29.069 20.1291 28.793C20.0353 28.5169 19.9884 28.2031 19.9884 27.8516C19.9884 27.3828 20.0679 26.9844 20.2267 26.6562C20.3856 26.3255 20.6121 26.0742 20.9064 25.9023C21.2033 25.7279 21.5561 25.6406 21.965 25.6406C22.3556 25.6406 22.6968 25.7279 22.9884 25.9023C23.2827 26.0768 23.5106 26.3294 23.672 26.6602C23.8361 26.9883 23.9181 27.3854 23.9181 27.8516ZM20.6603 27.8516C20.6603 28.1953 20.7059 28.4935 20.797 28.7461C20.8882 28.9987 21.0288 29.194 21.2189 29.332C21.409 29.4701 21.6538 29.5391 21.9533 29.5391C22.2502 29.5391 22.4936 29.4701 22.6838 29.332C22.8765 29.194 23.0184 28.9987 23.1095 28.7461C23.2007 28.4935 23.2463 28.1953 23.2463 27.8516C23.2463 27.5104 23.2007 27.2161 23.1095 26.9688C23.0184 26.7188 22.8778 26.526 22.6877 26.3906C22.4976 26.2552 22.2515 26.1875 21.9494 26.1875C21.5041 26.1875 21.1772 26.3346 20.9689 26.6289C20.7632 26.9232 20.6603 27.3307 20.6603 27.8516ZM26.8909 25.6406C27.4248 25.6406 27.8506 25.8242 28.1683 26.1914C28.486 26.5586 28.6448 27.1107 28.6448 27.8477C28.6448 28.3346 28.5719 28.7435 28.4261 29.0742C28.2803 29.4049 28.0745 29.6549 27.8089 29.8242C27.5459 29.9935 27.2347 30.0781 26.8753 30.0781C26.6488 30.0781 26.4495 30.0482 26.2777 29.9883C26.1058 29.9284 25.9586 29.8477 25.8363 29.7461C25.7139 29.6445 25.6123 29.5339 25.5316 29.4141H25.4847C25.4925 29.5156 25.5016 29.638 25.512 29.7812C25.5251 29.9245 25.5316 30.0495 25.5316 30.1562V31.9141H24.8792V25.7188H25.4144L25.5003 26.3516H25.5316C25.6149 26.2214 25.7165 26.1029 25.8363 25.9961C25.956 25.8867 26.1019 25.8008 26.2738 25.7383C26.4482 25.6732 26.654 25.6406 26.8909 25.6406ZM26.7777 26.1875C26.4808 26.1875 26.2412 26.2448 26.0589 26.3594C25.8792 26.474 25.7477 26.6458 25.6644 26.875C25.581 27.1016 25.5368 27.3867 25.5316 27.7305V27.8555C25.5316 28.2174 25.5706 28.5234 25.6488 28.7734C25.7295 29.0234 25.861 29.2135 26.0433 29.3438C26.2282 29.474 26.4756 29.5391 26.7855 29.5391C27.0511 29.5391 27.2724 29.4674 27.4495 29.3242C27.6266 29.181 27.7581 28.9818 27.8441 28.7266C27.9326 28.4688 27.9769 28.1732 27.9769 27.8398C27.9769 27.3346 27.8779 26.9336 27.68 26.6367C27.4847 26.3372 27.1839 26.1875 26.7777 26.1875ZM30.2348 25.7188V28.4102C30.2348 28.4622 30.2335 28.5299 30.2309 28.6133C30.2283 28.694 30.2244 28.7812 30.2192 28.875C30.214 28.9661 30.2088 29.0547 30.2036 29.1406C30.201 29.224 30.1971 29.293 30.1919 29.3477L32.5278 25.7188H33.3247V30H32.7192V27.375C32.7192 27.2917 32.7205 27.1849 32.7231 27.0547C32.7257 26.9245 32.7296 26.7969 32.7348 26.6719C32.7401 26.5443 32.744 26.4453 32.7466 26.375L30.4184 30H29.6177V25.7188H30.2348ZM35.1608 25.7188V28.4102C35.1608 28.4622 35.1595 28.5299 35.1569 28.6133C35.1543 28.694 35.1504 28.7812 35.1452 28.875C35.1399 28.9661 35.1347 29.0547 35.1295 29.1406C35.1269 29.224 35.123 29.293 35.1178 29.3477L37.4538 25.7188H38.2506V30H37.6452V27.375C37.6452 27.2917 37.6465 27.1849 37.6491 27.0547C37.6517 26.9245 37.6556 26.7969 37.6608 26.6719C37.666 26.5443 37.6699 26.4453 37.6725 26.375L35.3444 30H34.5436V25.7188H35.1608Z" fill="#272727" fill-opacity="0.8"/>
<rect x="11" width="20" height="2" rx="1" fill="#272727"/>
<rect x="11" y="8" width="20" height="2" rx="1" fill="#272727"/>
<rect x="11" y="16" width="20" height="2" rx="1" fill="#272727"/>
<circle cx="8" cy="1" r="1" fill="#272727"/>
<circle cx="8" cy="9" r="1" fill="#272727"/>
<circle cx="8" cy="17" r="1" fill="#272727"/>
</svg>
