<svg width="56" height="55" viewBox="0 0 56 55" fill="none" xmlns="http://www.w3.org/2000/svg">
<circle cx="28" cy="20" r="20" fill="#DFE8F3"/>
<g clip-path="url(#clip0_514_4540)">
<path fill-rule="evenodd" clip-rule="evenodd" d="M34.1875 21.3392V23.5893H31.5893C31.1299 23.5893 30.6893 23.7718 30.3645 24.0966C30.0396 24.4215 29.8571 24.862 29.8571 25.3214V27.0536C29.8571 27.513 30.0396 27.9535 30.3645 28.2784C30.6893 28.6032 31.1299 28.7857 31.5893 28.7857H34.1875V30.5179H22.0625V29.9999C22.57 29.4578 23.7479 28.1388 24.7369 26.5564C25.6567 25.0859 26.3929 23.3892 26.3929 21.8571C26.3929 18.7393 24.064 16.6607 21.1964 16.6607C18.3289 16.6607 16 18.7393 16 21.8571C16 23.3892 16.7362 25.0859 17.6559 26.5564C18.645 28.1388 19.8228 29.4578 20.3304 29.9999V30.5179C20.3304 30.9772 20.5128 31.4178 20.8377 31.7427C21.1625 32.0675 21.6031 32.25 22.0625 32.25H34.1875C34.6469 32.25 35.0875 32.0675 35.4123 31.7427C35.7371 31.4178 35.9196 30.9772 35.9196 30.5179V28.7857C35.9196 28.3263 35.7371 27.8857 35.4123 27.5609C35.0875 27.2361 34.6469 27.0536 34.1875 27.0536H31.5893V25.3214H34.1875C34.6469 25.3214 35.0875 25.1389 35.4123 24.8141C35.7371 24.4893 35.9196 24.0487 35.9196 23.5893V21.3392C36.4272 20.7971 37.605 19.478 38.5941 17.8957C39.5138 16.4251 40.25 14.7285 40.25 13.1964C40.25 10.0786 37.9211 8 35.0536 8C32.186 8 29.8571 10.0786 29.8571 13.1964C29.8571 14.7285 30.5933 16.4251 31.5131 17.8957C32.5021 19.478 33.68 20.7971 34.1875 21.3392ZM24.6607 21.8571C24.6607 23.0965 24.012 24.4484 23.2681 25.6384C22.557 26.7764 21.7403 27.7655 21.1964 28.3795C20.6525 27.7655 19.8358 26.7764 19.1248 25.6384C18.3808 24.4484 17.7321 23.0965 17.7321 21.8571C17.7321 19.7786 19.2841 18.3929 21.1964 18.3929C23.1087 18.3929 24.6607 19.7786 24.6607 21.8571ZM21.1964 19.2589C20.519 19.2764 19.8751 19.5578 19.4021 20.0432C18.9291 20.5285 18.6644 21.1794 18.6644 21.8571C18.6644 22.5348 18.9291 23.1857 19.4021 23.6711C19.8751 24.1564 20.519 24.4379 21.1964 24.4554C21.8739 24.4379 22.5178 24.1564 22.9907 23.6711C23.4637 23.1857 23.7284 22.5348 23.7284 21.8571C23.7284 21.1794 23.4637 20.5285 22.9907 20.0432C22.5178 19.5578 21.8739 19.2764 21.1964 19.2589ZM21.1964 20.9911C21.4261 20.9911 21.6464 21.0823 21.8088 21.2447C21.9713 21.4072 22.0625 21.6274 22.0625 21.8571C22.0625 22.0868 21.9713 22.3071 21.8088 22.4695C21.6464 22.632 21.4261 22.7232 21.1964 22.7232C20.9667 22.7232 20.7464 22.632 20.584 22.4695C20.4216 22.3071 20.3304 22.0868 20.3304 21.8571C20.3304 21.6274 20.4216 21.4072 20.584 21.2447C20.7464 21.0823 20.9667 20.9911 21.1964 20.9911ZM38.5179 13.1964C38.5179 14.4358 37.8692 15.7877 37.1252 16.9777C36.4142 18.1157 35.5975 19.1048 35.0536 19.7188C34.5097 19.1048 33.693 18.1157 32.9819 16.9777C32.238 15.7877 31.5893 14.4358 31.5893 13.1964C31.5893 11.1179 33.1413 9.73214 35.0536 9.73214C36.9659 9.73214 38.5179 11.1179 38.5179 13.1964ZM35.0536 10.5982C34.3761 10.6157 33.7322 10.8971 33.2593 11.3825C32.7863 11.8678 32.5216 12.5187 32.5216 13.1964C32.5216 13.8741 32.7863 14.525 33.2593 15.0104C33.7322 15.4957 34.3761 15.7771 35.0536 15.7946C35.731 15.7771 36.3749 15.4957 36.8479 15.0104C37.3209 14.525 37.5856 13.8741 37.5856 13.1964C37.5856 12.5187 37.3209 11.8678 36.8479 11.3825C36.3749 10.8971 35.731 10.6157 35.0536 10.5982ZM35.0536 12.3304C35.2833 12.3304 35.5036 12.4216 35.666 12.584C35.8284 12.7464 35.9196 12.9667 35.9196 13.1964C35.9196 13.4261 35.8284 13.6464 35.666 13.8088C35.5036 13.9713 35.2833 14.0625 35.0536 14.0625C34.8239 14.0625 34.6036 13.9713 34.4412 13.8088C34.2787 13.6464 34.1875 13.4261 34.1875 13.1964C34.1875 12.9667 34.2787 12.7464 34.4412 12.584C34.6036 12.4216 34.8239 12.3304 35.0536 12.3304Z" fill="#1B84F8"/>
</g>
<path d="M4.38781 48.7188V53H3.73547V49.2773H1.45422V53H0.801874V48.7188H4.38781ZM8.81375 53H8.15359V49.2617H6.85281C6.80073 49.9362 6.73432 50.5143 6.65359 50.9961C6.57547 51.4753 6.47651 51.8672 6.35672 52.1719C6.23953 52.474 6.0963 52.6966 5.92703 52.8398C5.76036 52.9805 5.56115 53.0508 5.32937 53.0508C5.25906 53.0508 5.19266 53.0469 5.13016 53.0391C5.06766 53.0312 5.01427 53.0182 4.97 53V52.5078C5.00385 52.5182 5.03901 52.526 5.07547 52.5312C5.11453 52.5365 5.1549 52.5391 5.19656 52.5391C5.31375 52.5391 5.42052 52.4909 5.51687 52.3945C5.61583 52.2956 5.70437 52.1471 5.7825 51.9492C5.86323 51.7513 5.93484 51.5013 5.99734 51.1992C6.05984 50.8945 6.11453 50.5365 6.16141 50.125C6.21088 49.7109 6.25385 49.2422 6.29031 48.7188H8.81375V53ZM11.6225 48.6484C12.1329 48.6484 12.5118 48.763 12.7592 48.9922C13.0066 49.2214 13.1303 49.5872 13.1303 50.0898V53H12.6577L12.5327 52.3672H12.5014C12.3816 52.5234 12.2566 52.6549 12.1264 52.7617C11.9962 52.8659 11.8452 52.9453 11.6733 53C11.504 53.0521 11.2957 53.0781 11.0483 53.0781C10.7879 53.0781 10.5561 53.0326 10.353 52.9414C10.1524 52.8503 9.99359 52.7122 9.87641 52.5273C9.76182 52.3424 9.70453 52.1081 9.70453 51.8242C9.70453 51.3971 9.8738 51.069 10.2123 50.8398C10.5509 50.6107 11.0665 50.4857 11.7592 50.4648L12.4975 50.4336V50.1719C12.4975 49.8021 12.4181 49.543 12.2592 49.3945C12.1004 49.2461 11.8764 49.1719 11.5873 49.1719C11.3634 49.1719 11.1498 49.2044 10.9467 49.2695C10.7436 49.3346 10.5509 49.4115 10.3686 49.5L10.1694 49.0078C10.3621 48.9089 10.5834 48.8242 10.8334 48.7539C11.0834 48.6836 11.3465 48.6484 11.6225 48.6484ZM12.4897 50.8906L11.8373 50.918C11.3035 50.9388 10.9272 51.026 10.7084 51.1797C10.4897 51.3333 10.3803 51.5508 10.3803 51.832C10.3803 52.0768 10.4545 52.2578 10.603 52.375C10.7514 52.4922 10.948 52.5508 11.1928 52.5508C11.573 52.5508 11.8842 52.4453 12.1264 52.2344C12.3686 52.0234 12.4897 51.707 12.4897 51.2852V50.8906ZM14.9586 48.7188V50.5156H17.3453V48.7188H17.9937V53H17.3453V51.0664H14.9586V53H14.3062V48.7188H14.9586ZM19.8259 48.7188V51.4102C19.8259 51.4622 19.8246 51.5299 19.822 51.6133C19.8194 51.694 19.8155 51.7812 19.8103 51.875C19.8051 51.9661 19.7999 52.0547 19.7947 52.1406C19.7921 52.224 19.7882 52.293 19.783 52.3477L22.1189 48.7188H22.9158V53H22.3103V50.375C22.3103 50.2917 22.3116 50.1849 22.3142 50.0547C22.3168 49.9245 22.3207 49.7969 22.3259 49.6719C22.3311 49.5443 22.3351 49.4453 22.3377 49.375L20.0095 53H19.2087V48.7188H19.8259ZM26.1464 48.6406C26.6803 48.6406 27.106 48.8242 27.4237 49.1914C27.7415 49.5586 27.9003 50.1107 27.9003 50.8477C27.9003 51.3346 27.8274 51.7435 27.6816 52.0742C27.5357 52.4049 27.33 52.6549 27.0644 52.8242C26.8014 52.9935 26.4902 53.0781 26.1308 53.0781C25.9042 53.0781 25.705 53.0482 25.5331 52.9883C25.3612 52.9284 25.2141 52.8477 25.0917 52.7461C24.9693 52.6445 24.8678 52.5339 24.787 52.4141H24.7402C24.748 52.5156 24.7571 52.638 24.7675 52.7812C24.7805 52.9245 24.787 53.0495 24.787 53.1562V54.9141H24.1347V48.7188H24.6698L24.7558 49.3516H24.787C24.8704 49.2214 24.9719 49.1029 25.0917 48.9961C25.2115 48.8867 25.3573 48.8008 25.5292 48.7383C25.7037 48.6732 25.9094 48.6406 26.1464 48.6406ZM26.0331 49.1875C25.7362 49.1875 25.4967 49.2448 25.3144 49.3594C25.1347 49.474 25.0032 49.6458 24.9198 49.875C24.8365 50.1016 24.7922 50.3867 24.787 50.7305V50.8555C24.787 51.2174 24.8261 51.5234 24.9042 51.7734C24.9849 52.0234 25.1165 52.2135 25.2987 52.3438C25.4836 52.474 25.731 52.5391 26.0409 52.5391C26.3066 52.5391 26.5279 52.4674 26.705 52.3242C26.8821 52.181 27.0136 51.9818 27.0995 51.7266C27.1881 51.4688 27.2323 51.1732 27.2323 50.8398C27.2323 50.3346 27.1334 49.9336 26.9355 49.6367C26.7402 49.3372 26.4394 49.1875 26.0331 49.1875ZM32.5645 50.8516C32.5645 51.2031 32.519 51.5169 32.4278 51.793C32.3367 52.069 32.2052 52.3021 32.0333 52.4922C31.8614 52.6823 31.6531 52.8281 31.4083 52.9297C31.1661 53.0286 30.8914 53.0781 30.5841 53.0781C30.2976 53.0781 30.0346 53.0286 29.795 52.9297C29.558 52.8281 29.3523 52.6823 29.1778 52.4922C29.0059 52.3021 28.8718 52.069 28.7755 51.793C28.6817 51.5169 28.6348 51.2031 28.6348 50.8516C28.6348 50.3828 28.7143 49.9844 28.8731 49.6562C29.032 49.3255 29.2585 49.0742 29.5528 48.9023C29.8497 48.7279 30.2026 48.6406 30.6114 48.6406C31.002 48.6406 31.3432 48.7279 31.6348 48.9023C31.9291 49.0768 32.157 49.3294 32.3184 49.6602C32.4825 49.9883 32.5645 50.3854 32.5645 50.8516ZM29.3067 50.8516C29.3067 51.1953 29.3523 51.4935 29.4434 51.7461C29.5346 51.9987 29.6752 52.194 29.8653 52.332C30.0554 52.4701 30.3002 52.5391 30.5997 52.5391C30.8966 52.5391 31.1401 52.4701 31.3302 52.332C31.5229 52.194 31.6648 51.9987 31.7559 51.7461C31.8471 51.4935 31.8927 51.1953 31.8927 50.8516C31.8927 50.5104 31.8471 50.2161 31.7559 49.9688C31.6648 49.7188 31.5242 49.526 31.3341 49.3906C31.144 49.2552 30.8979 49.1875 30.5958 49.1875C30.1505 49.1875 29.8236 49.3346 29.6153 49.6289C29.4096 49.9232 29.3067 50.3307 29.3067 50.8516ZM36.928 49.793C36.928 50.0612 36.8498 50.2708 36.6936 50.4219C36.5373 50.5703 36.3355 50.6706 36.0881 50.7227V50.7539C36.3564 50.7904 36.5868 50.8867 36.7795 51.043C36.9748 51.1966 37.0725 51.4323 37.0725 51.75C37.0725 51.9948 37.0139 52.2109 36.8967 52.3984C36.7795 52.5859 36.5959 52.7331 36.3459 52.8398C36.0959 52.9466 35.7704 53 35.3694 53H33.5256V48.7188H35.3538C35.661 48.7188 35.9319 48.7539 36.1663 48.8242C36.4032 48.8919 36.5894 49.0039 36.7248 49.1602C36.8603 49.3164 36.928 49.5273 36.928 49.793ZM36.3967 51.75C36.3967 51.4974 36.3004 51.3151 36.1077 51.2031C35.9176 51.0911 35.6402 51.0352 35.2756 51.0352H34.178V52.4727H35.2913C35.6506 52.4727 35.9241 52.418 36.1116 52.3086C36.3017 52.1966 36.3967 52.0104 36.3967 51.75ZM36.2678 49.8672C36.2678 49.6641 36.1936 49.513 36.0452 49.4141C35.8967 49.3125 35.6532 49.2617 35.3147 49.2617H34.178V50.4922H35.2014C35.553 50.4922 35.8186 50.4414 35.9983 50.3398C36.178 50.2383 36.2678 50.0807 36.2678 49.8672ZM39.5609 48.6484C40.0714 48.6484 40.4503 48.763 40.6977 48.9922C40.9451 49.2214 41.0687 49.5872 41.0687 50.0898V53H40.5961L40.4711 52.3672H40.4398C40.3201 52.5234 40.1951 52.6549 40.0648 52.7617C39.9346 52.8659 39.7836 52.9453 39.6117 53C39.4424 53.0521 39.2341 53.0781 38.9867 53.0781C38.7263 53.0781 38.4945 53.0326 38.2914 52.9414C38.0909 52.8503 37.932 52.7122 37.8148 52.5273C37.7003 52.3424 37.643 52.1081 37.643 51.8242C37.643 51.3971 37.8122 51.069 38.1508 50.8398C38.4893 50.6107 39.0049 50.4857 39.6977 50.4648L40.4359 50.4336V50.1719C40.4359 49.8021 40.3565 49.543 40.1977 49.3945C40.0388 49.2461 39.8148 49.1719 39.5258 49.1719C39.3018 49.1719 39.0883 49.2044 38.8852 49.2695C38.682 49.3346 38.4893 49.4115 38.307 49.5L38.1078 49.0078C38.3005 48.9089 38.5219 48.8242 38.7719 48.7539C39.0219 48.6836 39.2849 48.6484 39.5609 48.6484ZM40.4281 50.8906L39.7758 50.918C39.2419 50.9388 38.8656 51.026 38.6469 51.1797C38.4281 51.3333 38.3187 51.5508 38.3187 51.832C38.3187 52.0768 38.393 52.2578 38.5414 52.375C38.6898 52.4922 38.8865 52.5508 39.1312 52.5508C39.5115 52.5508 39.8227 52.4453 40.0648 52.2344C40.307 52.0234 40.4281 51.707 40.4281 51.2852V50.8906ZM42.897 48.7188V50.5156H45.2838V48.7188H45.9322V53H45.2838V51.0664H42.897V53H42.2447V48.7188H42.897ZM47.7644 48.7188V51.4102C47.7644 51.4622 47.7631 51.5299 47.7605 51.6133C47.7579 51.694 47.754 51.7812 47.7487 51.875C47.7435 51.9661 47.7383 52.0547 47.7331 52.1406C47.7305 52.224 47.7266 52.293 47.7214 52.3477L50.0573 48.7188H50.8542V53H50.2487V50.375C50.2487 50.2917 50.2501 50.1849 50.2527 50.0547C50.2553 49.9245 50.2592 49.7969 50.2644 49.6719C50.2696 49.5443 50.2735 49.4453 50.2761 49.375L47.948 53H47.1472V48.7188H47.7644ZM53.7216 48.6406C54.0861 48.6406 54.3986 48.7214 54.6591 48.8828C54.9195 49.0443 55.1187 49.2708 55.2567 49.5625C55.3947 49.8516 55.4638 50.1901 55.4638 50.5781V50.9805H52.5067C52.5145 51.4831 52.6395 51.8659 52.8817 52.1289C53.1239 52.3919 53.4651 52.5234 53.9052 52.5234C54.176 52.5234 54.4156 52.4987 54.6239 52.4492C54.8322 52.3997 55.0484 52.3268 55.2723 52.2305V52.8008C55.0562 52.8971 54.8414 52.9674 54.6278 53.0117C54.4169 53.056 54.1669 53.0781 53.8778 53.0781C53.4664 53.0781 53.107 52.9948 52.7997 52.8281C52.495 52.6589 52.258 52.4115 52.0888 52.0859C51.9195 51.7604 51.8348 51.362 51.8348 50.8906C51.8348 50.4297 51.9117 50.0312 52.0653 49.6953C52.2216 49.3568 52.4403 49.0964 52.7216 48.9141C53.0054 48.7318 53.3388 48.6406 53.7216 48.6406ZM53.7138 49.1719C53.3674 49.1719 53.0914 49.2852 52.8856 49.5117C52.6799 49.7383 52.5575 50.0547 52.5184 50.4609H54.7841C54.7815 50.2057 54.7411 49.9818 54.663 49.7891C54.5875 49.5938 54.4716 49.4427 54.3153 49.3359C54.1591 49.2266 53.9585 49.1719 53.7138 49.1719Z" fill="#272727" fill-opacity="0.8"/>
<defs>
<clipPath id="clip0_514_4540">
<rect width="24.25" height="24.25" fill="white" transform="translate(16 8)"/>
</clipPath>
</defs>
</svg>
