<svg width="16" height="16" viewBox="0 0 16 16" fill="none" xmlns="http://www.w3.org/2000/svg">
<path d="M7.98916 2.16748C6.08082 2.16748 4.52832 3.71998 4.52832 5.62829C4.52832 7.53661 6.08082 9.08923 7.98916 9.08923C9.8976 9.08923 11.4501 7.53661 11.4501 5.62829C11.4501 3.71998 9.8976 2.16748 7.98916 2.16748ZM7.98916 8.15379C6.59666 8.15379 5.46376 7.02086 5.46376 5.62829C5.46376 4.23582 6.5967 3.10289 7.98916 3.10289C9.38173 3.10289 10.5147 4.23582 10.5147 5.62829C10.5147 7.02086 9.38173 8.15379 7.98916 8.15379Z" fill="#1B84F8"/>
<path fill-rule="evenodd" clip-rule="evenodd" d="M2.12524 5.86391C2.12524 2.6305 4.75571 0 7.98915 0C11.2225 0 13.8532 2.63047 13.8531 5.86391C13.8531 7.34925 12.9171 9.44788 11.0713 12.1016C9.7219 14.0414 8.39487 15.5425 8.33909 15.6055C8.15301 15.8152 7.82534 15.8153 7.63931 15.6055C7.58337 15.5425 6.25634 14.0414 4.90712 12.1016C3.06118 9.44788 2.12524 7.34922 2.12524 5.86391ZM10.2645 11.6215C10.2793 11.6012 10.294 11.5806 10.3085 11.5598C12.0154 9.10462 12.9176 7.135 12.9176 5.86387C12.9176 3.14637 10.7068 0.935438 7.98912 0.935438C5.27162 0.935438 3.06068 3.14638 3.06068 5.86391C3.06068 7.13634 3.96474 9.10863 5.67506 11.5674C5.73773 11.6575 5.80418 11.7426 5.87399 11.8227L7.38167 14.0217C7.67958 14.4563 8.3209 14.4563 8.61882 14.0217L10.2645 11.6215Z" fill="#1B84F8"/>
</svg>
